# xmcd
#
# Track frame offsets:
#	150
#	20372
#	39140
#	57938
#	73299
#	89770
#	105425
#	120594
#	139754
#	154141
#	174363
#	193131
#	211929
#	227290
#	243761
#	259416
#	274585
#	293745
#
# Disc length: 4108 seconds
#
# Revision: 2
# Processed by: cddbd v1.5.2PL0 Copyright (c) Steve Scherf et al.
# Submitted via: audiograbber 1.83.01
#
DISCID=f8100a12
DTITLE=Various Artist - PHMC0706
DYEAR=2007
DGENRE=Karaoke
TTITLE0=Urban, Keith - I Told You So
TTITLE1=Lambert, Miranda - Famous In A Small Town
TTITLE2=Paisley, Brad - Ticks
TTITLE3=Dalley, Amy - Good Kind Of Crazy
TTITLE4=Lawrence, Tracy - Find Out Who Your Friends Are
TTITLE5=Atkins, Rodney - These Are My People
TTITLE6=Morgan, Craig - Tough
TTITLE7=Little Big Town - A Little More You
TTITLE8=Clark, Terri - Dirty Girl
TTITLE9=Urban, Keith - I Told You So (Vocals)
TTITLE10=Lambert, Miranda - Famous In A Small Town (Vocals)
TTITLE11=Paisley, Brad - Ticks (Vocals)
TTITLE12=Dalley, Amy - Good Kind Of Crazy (Vocals)
TTITLE13=Lawrence, Tracy - Find Out Who Your Friends Are (Vocals)
TTITLE14=Atkins, Rodney - These Are My People (Vocals)
TTITLE15=Morgan, Craig - Tough (Vocals)
TTITLE16=Little Big Town - A Little More You (Vocals)
TTITLE17=Clark, Terri - Dirty Girl (Vocals)
EXTD=
EXTT0=
EXTT1=
EXTT2=
EXTT3=
EXTT4=
EXTT5=
EXTT6=
EXTT7=
EXTT8=
EXTT9=
EXTT10=
EXTT11=
EXTT12=
EXTT13=
EXTT14=
EXTT15=
EXTT16=
EXTT17=
PLAYORDER=
